<?xml version="1.0" encoding="utf-8"?>
<!-- Generator: Adobe Illustrator 27.4.0, SVG Export Plug-In . SVG Version: 6.00 Build 0)  -->
<svg version="1.1" id="Capa_1" xmlns="http://www.w3.org/2000/svg" xmlns:xlink="http://www.w3.org/1999/xlink" x="0px" y="0px"
	 viewBox="0 0 1080 1080" style="enable-background:new 0 0 1080 1080;" xml:space="preserve">
<style type="text/css">
	.st0{fill:#7C6494;}
	.st1{fill:#ECD3D9;}
	.st2{opacity:0.42;fill:#1C2C4C;}
	.st3{fill:#D49D8C;}
	.st4{fill:#FFFFFF;stroke:#000000;stroke-width:2;}
	.st5{fill:none;}
	.st6{font-family:'BritannicBold';}
	.st7{font-size:208px;}
</style>
<image style="overflow:visible;" width="1306" height="736" xlink:href="bg.jpeg"  transform="matrix(1.4674 0 0 1.4674 -418.2065 0)">
</image>
<ellipse class="st0" cx="572" cy="539" rx="777" ry="98"/>
<ellipse class="st1" cx="538" cy="527.5" rx="379" ry="357.5"/>
<ellipse class="st2" cx="538" cy="527.5" rx="362.8" ry="342.2"/>
<ellipse class="st3" cx="540" cy="540" rx="331.3" ry="312.5"/>
<ellipse class="st0" cx="540" cy="540" rx="299.9" ry="282.9"/>
<ellipse class="st1" cx="540" cy="540" rx="252.2" ry="237.9"/>
<ellipse cx="538" cy="540" rx="212.2" ry="200.2"/>
<g>
	<path class="st4" d="M23.5,536.3V378.3H89c46.5,0,69.8,26.4,69.8,79.1c0,52.5-24.1,78.8-72.3,78.8H23.5z M69.3,523.2h12
		c11,0,18.7-4.8,22.9-14.3c4.2-9.5,6.4-26.7,6.4-51.7c0-24.9-2.1-42.1-6.3-51.6c-4.2-9.5-11.9-14.2-23-14.2h-12V523.2z"/>
	<path class="st4" d="M260.6,493.6l17,5c-1.8,26.9-17.7,40.4-47.7,40.4c-38.9,0-58.3-19.4-58.3-58.2c0-18.8,5.2-34.2,15.5-46.3
		c10.3-12,23.6-18.1,39.7-18.1c33.7,0,50.6,21.8,50.6,65.3h-61.6c0,30.5,7.8,45.8,23.3,45.8c14.5,0,21.8-8.6,21.8-25.9
		C260.8,499.2,260.7,496.6,260.6,493.6z M215.7,468.6h25.2c0-27.2-4.1-40.7-12.3-40.7c-7.4,0-11.6,10.1-12.5,30.2L215.7,468.6z"/>
	<path class="st4" d="M390.2,419.6l-39.2,116.6h-29.4l-40.5-116.6h45l24.8,78.1l25.5-78.1H390.2z"/>
	<path class="st4" d="M482.7,493.6l17,5c-1.8,26.9-17.7,40.4-47.7,40.4c-38.9,0-58.3-19.4-58.3-58.2c0-18.8,5.2-34.2,15.5-46.3
		c10.3-12,23.6-18.1,39.7-18.1c33.7,0,50.6,21.8,50.6,65.3H438c0,30.5,7.8,45.8,23.3,45.8c14.5,0,21.8-8.6,21.8-25.9
		C483,499.2,482.9,496.6,482.7,493.6z M437.8,468.6h25.2c0-27.2-4.1-40.7-12.3-40.7c-7.4,0-11.6,10.1-12.5,30.2L437.8,468.6z"/>
	<path class="st4" d="M559.4,376v160.3h-42.2V378.3C528.9,378.3,542.9,377.5,559.4,376z"/>
	<path class="st4" d="M635.1,416.6c38.6,0,57.9,20.4,57.9,61.1s-19.3,61.1-57.9,61.1c-38.6,0-58-20.4-58-61.1
		S596.5,416.6,635.1,416.6z M635,426.9c-9.3,0-14,16.9-14,50.8c0,33.9,4.7,50.8,14,50.8c9.4,0,14.1-16.9,14.1-50.8
		C649.1,443.8,644.4,426.9,635,426.9z"/>
	<path class="st4" d="M710.4,575.7v-156c12,0,26-1,42.2-3v17.6c7.9-11.8,17.6-17.7,28.9-17.7c12.1,0,21.8,5.5,29,16.6
		c7.2,11.1,10.9,25.9,10.9,44.5c0,41.1-13.7,61.7-41.1,61.7c-11.3,0-20.5-4.2-27.8-12.7v49.1H710.4z M766.2,433.6
		c-9.3,0-14,14.5-14,43.5c0,30.2,4.5,45.2,13.4,45.2c8,0,12-15.1,12-45.2C777.7,448.1,773.9,433.6,766.2,433.6z"/>
	<path class="st4" d="M923,493.6l17,5c-1.8,26.9-17.7,40.4-47.7,40.4c-38.9,0-58.3-19.4-58.3-58.2c0-18.8,5.2-34.2,15.5-46.3
		c10.3-12,23.6-18.1,39.7-18.1c33.7,0,50.6,21.8,50.6,65.3h-61.6c0,30.5,7.8,45.8,23.3,45.8c14.5,0,21.8-8.6,21.8-25.9
		C923.2,499.2,923.2,496.6,923,493.6z M878.1,468.6h25.2c0-27.2-4.1-40.7-12.3-40.7c-7.4,0-11.6,10.1-12.5,30.2L878.1,468.6z"/>
	<path class="st4" d="M1041.7,462h-28.9c1-4.6,1.9-7.9,2.7-10.1c1.1-3.2,1.6-6,1.6-8.6c0-4.9-1.8-7.4-5.3-7.4
		c-2.7,0-5.3,3.3-7.8,9.8c-2.5,6.5-3.7,13.4-3.7,20.7v69.9h-42.2V419.6l8.2,0.1c9.7,0,21.1-1,34-3.1v19.2
		c6.9-12.8,15.3-19.2,25.2-19.2c13.6,0,20.4,7.5,20.4,22.4c0,3.9-0.7,8.4-2,13.5C1043.4,454.7,1042.7,457.8,1041.7,462z"/>
</g>
<rect x="361.6" y="590" class="st5" width="575" height="223"/>
<text transform="matrix(1 0 0 1 361.621 730.8701)" class="st4 st6 st7">O.S.</text>
</svg>
